<svg xmlns="http://www.w3.org/2000/svg" width="20" height="21" viewBox="0 0 20 21" fill="none">
  <path d="M17.5 4.25H2.5C2.16848 4.25 1.85054 4.3817 1.61612 4.61612C1.3817 4.85054 1.25 5.16848 1.25 5.5V7.375C1.25 7.70652 1.3817 8.02446 1.61612 8.25888C1.85054 8.4933 2.16848 8.625 2.5 8.625V15.5C2.5 15.8315 2.6317 16.1495 2.86612 16.3839C3.10054 16.6183 3.41848 16.75 3.75 16.75H16.25C16.5815 16.75 16.8995 16.6183 17.1339 16.3839C17.3683 16.1495 17.5 15.8315 17.5 15.5V8.625C17.8315 8.625 18.1495 8.4933 18.3839 8.25888C18.6183 8.02446 18.75 7.70652 18.75 7.375V5.5C18.75 5.16848 18.6183 4.85054 18.3839 4.61612C18.1495 4.3817 17.8315 4.25 17.5 4.25ZM16.25 15.5H3.75V8.625H16.25V15.5ZM17.5 7.375H2.5V5.5H17.5V7.375ZM7.5 11.125C7.5 10.9592 7.56585 10.8003 7.68306 10.6831C7.80027 10.5658 7.95924 10.5 8.125 10.5H11.875C12.0408 10.5 12.1997 10.5658 12.3169 10.6831C12.4342 10.8003 12.5 10.9592 12.5 11.125C12.5 11.2908 12.4342 11.4497 12.3169 11.5669C12.1997 11.6842 12.0408 11.75 11.875 11.75H8.125C7.95924 11.75 7.80027 11.6842 7.68306 11.5669C7.56585 11.4497 7.5 11.2908 7.5 11.125Z" fill="currentColor"/>
</svg>