<svg xmlns="http://www.w3.org/2000/svg" width="8" height="16" viewBox="0 0 8 16" fill="none">
  <path d="M1.57838 0.307795L7.72866 7.26199C7.81467 7.3589 7.88291 7.47405 7.92947 7.60084C7.97603 7.72764 8 7.86358 8 8.00087C8 8.13816 7.97603 8.2741 7.92947 8.40089C7.88291 8.52769 7.81467 8.64284 7.72866 8.73975L1.57838 15.6939C1.40507 15.8899 1.17001 16 0.924911 16C0.679813 16 0.444754 15.8899 0.271444 15.6939C0.0981335 15.498 0.000768918 15.2322 0.000768904 14.9551C0.000768889 14.6779 0.0981334 14.4121 0.271444 14.2162L5.76903 8L0.270675 1.78382C0.0973645 1.58786 -6.41592e-07 1.32208 -6.53706e-07 1.04494C-6.6582e-07 0.767806 0.0973645 0.502022 0.270675 0.306058C0.443985 0.110094 0.679044 -2.9682e-08 0.924142 -4.03956e-08C1.16924 -5.11091e-08 1.4043 0.110094 1.57761 0.306058L1.57838 0.307795Z" fill="currentColor"/>
</svg>