<svg width="24" height="24" viewBox="0 0 24 24" fill="none" xmlns="http://www.w3.org/2000/svg">
<path d="M7.47 6C7.35759 6.00016 7.24665 6.02559 7.1454 6.0744C7.04414 6.12321 6.95514 6.19416 6.885 6.282L2.31 12H9C9.19891 12 9.38968 12.079 9.53033 12.2197C9.67098 12.3603 9.75 12.5511 9.75 12.75C9.75 13.3467 9.98705 13.919 10.409 14.341C10.831 14.7629 11.4033 15 12 15C12.5967 15 13.169 14.7629 13.591 14.341C14.0129 13.919 14.25 13.3467 14.25 12.75C14.25 12.5511 14.329 12.3603 14.4697 12.2197C14.6103 12.079 14.8011 12 15 12H21.69L17.115 6.282C17.0449 6.19416 16.9559 6.12321 16.8546 6.0744C16.7533 6.02559 16.6424 6.00016 16.53 6H7.47ZM22.401 13.5H15.675C15.5029 14.3477 15.043 15.1099 14.3732 15.6573C13.7034 16.2047 12.865 16.5038 12 16.5038C11.135 16.5038 10.2966 16.2047 9.62681 15.6573C8.95705 15.1099 8.49714 14.3477 8.325 13.5H1.599L2.079 17.343C2.1017 17.5246 2.19002 17.6917 2.32733 17.8127C2.46465 17.9337 2.64147 18.0003 2.8245 18H21.1755C21.3583 17.9999 21.5347 17.9332 21.6717 17.8122C21.8087 17.6912 21.8968 17.5244 21.9195 17.343L22.401 13.5ZM5.7135 5.3445C5.9244 5.08086 6.19192 4.86806 6.49624 4.72187C6.80057 4.57568 7.13389 4.49985 7.4715 4.5H16.5285C16.8661 4.49985 17.1994 4.57568 17.5038 4.72187C17.8081 4.86806 18.0756 5.08086 18.2865 5.3445L23.8365 12.282C23.8989 12.3603 23.9449 12.4502 23.972 12.5466C23.999 12.6429 24.0065 12.7437 23.994 12.843L23.409 17.529C23.341 18.0733 23.0764 18.5741 22.6651 18.937C22.2538 19.3 21.7241 19.5002 21.1755 19.5H2.8245C2.27593 19.5002 1.74619 19.3 1.33487 18.937C0.923563 18.5741 0.659023 18.0733 0.591001 17.529L0.0060012 12.843C-0.00629318 12.7436 0.00144183 12.6428 0.0287499 12.5464C0.056058 12.4501 0.102386 12.3602 0.165001 12.282L5.7135 5.3445Z" fill="#3C3C3C"/>
</svg>
