<svg width="32" height="32" viewBox="0 0 32 32" fill="none" xmlns="http://www.w3.org/2000/svg">
<path d="M26 4.13018H23V3.06509C23 2.78261 22.8946 2.5117 22.7071 2.31196C22.5196 2.11221 22.2652 2 22 2C21.7348 2 21.4804 2.11221 21.2929 2.31196C21.1054 2.5117 21 2.78261 21 3.06509V4.13018H11V3.06509C11 2.78261 10.8946 2.5117 10.7071 2.31196C10.5196 2.11221 10.2652 2 10 2C9.73478 2 9.48043 2.11221 9.29289 2.31196C9.10536 2.5117 9 2.78261 9 3.06509V4.13018H6C5.46957 4.13018 4.96086 4.35461 4.58579 4.75409C4.21071 5.15358 4 5.6954 4 6.26035V27.5621C4 28.1271 4.21071 28.6689 4.58579 29.0684C4.96086 29.4679 5.46957 29.6923 6 29.6923H26C26.5304 29.6923 27.0391 29.4679 27.4142 29.0684C27.7893 28.6689 28 28.1271 28 27.5621V6.26035C28 5.6954 27.7893 5.15358 27.4142 4.75409C27.0391 4.35461 26.5304 4.13018 26 4.13018ZM9 6.26035V7.32544C9 7.60792 9.10536 7.87883 9.29289 8.07858C9.48043 8.27832 9.73478 8.39053 10 8.39053C10.2652 8.39053 10.5196 8.27832 10.7071 8.07858C10.8946 7.87883 11 7.60792 11 7.32544V6.26035H21V7.32544C21 7.60792 21.1054 7.87883 21.2929 8.07858C21.4804 8.27832 21.7348 8.39053 22 8.39053C22.2652 8.39053 22.5196 8.27832 22.7071 8.07858C22.8946 7.87883 23 7.60792 23 7.32544V6.26035H26V10.5207H6V6.26035H9ZM26 27.5621H6V12.6509H26V27.5621Z" fill="black"/>
</svg>
