<svg xmlns="http://www.w3.org/2000/svg" width="20" height="14" viewBox="0 0 20 14" fill="none">
  <path d="M6.70676 0.746108L0.937527 6.51534C0.829635 6.62349 0.769043 6.77002 0.769043 6.92279C0.769043 7.07556 0.829635 7.22209 0.937527 7.33024L6.70676 13.0995C6.7874 13.1802 6.89017 13.2352 7.00208 13.2575C7.11398 13.2799 7.22999 13.2685 7.33544 13.2249C7.44088 13.1813 7.53103 13.1074 7.59447 13.0125C7.65791 12.9177 7.6918 12.8061 7.69185 12.692V10.2469L6.59105 8.98885C6.55643 9.0639 6.53801 9.14624 6.53801 9.23048V11.2995L2.16132 6.92279L6.53801 2.54683V4.6151C6.53801 4.74143 6.57944 4.8635 6.65479 4.96312L7.69281 4.0635C7.69249 4.06347 7.69217 4.06344 7.69185 4.06342V1.15356C7.6918 1.03945 7.65791 0.92792 7.59447 0.833073C7.53103 0.738225 7.44088 0.664322 7.33544 0.620708C7.22999 0.577094 7.11398 0.565729 7.00208 0.58805C6.89017 0.610371 6.7874 0.665376 6.70676 0.746108ZM10.3844 4.75923V4.80767L10.6417 4.87198C10.5561 4.83313 10.4703 4.79554 10.3844 4.75923Z" fill="currentColor"/>
  <path d="M4.01446 6.51534L9.78369 0.746108C9.86433 0.665376 9.9671 0.610371 10.079 0.58805C10.1909 0.565729 10.3069 0.577094 10.4124 0.620708C10.5178 0.664322 10.608 0.738226 10.6714 0.833073C10.7348 0.92792 10.7687 1.03945 10.7688 1.15356V4.06342C12.6395 4.22351 14.7056 5.13938 16.4053 6.58096C18.452 8.3175 19.7262 10.5552 19.9938 12.8817C20.0147 13.0626 19.978 13.2454 19.889 13.4042C19.8 13.5631 19.6631 13.6897 19.4979 13.7663C19.3327 13.8428 19.1475 13.8653 18.9688 13.8305C18.7901 13.7957 18.6269 13.7055 18.5024 13.5726C17.7092 12.7281 14.8866 10.0576 10.7688 9.82255V12.692C10.7687 12.8061 10.7348 12.9177 10.6714 13.0125C10.608 13.1074 10.5178 13.1813 10.4124 13.2249C10.3069 13.2685 10.1909 13.2799 10.079 13.2575C9.9671 13.2352 9.86433 13.1802 9.78369 13.0995L4.01446 7.33024C3.90657 7.22209 3.84598 7.07556 3.84598 6.92279C3.84598 6.77002 3.90657 6.62349 4.01446 6.51534ZM9.61494 11.2995V9.23048C9.61494 9.07747 9.67572 8.93073 9.78392 8.82254C9.89211 8.71434 10.0389 8.65356 10.1919 8.65356C12.2169 8.65356 14.1892 9.18217 16.0541 10.2257C17.0039 10.7595 17.8889 11.4012 18.6914 12.1382C18.2731 10.4189 17.2188 8.78409 15.6589 7.46077C13.9844 6.04082 11.9407 5.19202 10.1919 5.19202C10.0389 5.19202 9.89211 5.13124 9.78392 5.02304C9.67572 4.91485 9.61494 4.76811 9.61494 4.6151V2.54683L5.23826 6.92279L9.61494 11.2995Z" fill="currentColor"/>
</svg>