<svg viewBox="0 0 20 16" fill="none" xmlns="http://www.w3.org/2000/svg">
  <path id="expansion" d="M18.4615 16L1.53846 16C1.13044 16 0.739122 15.8314 0.450605 15.5314C0.162087 15.2313 1.02779e-07 14.8243 1.39876e-07 14.4L1.25889e-06 1.6C1.29599e-06 1.17565 0.162089 0.768686 0.450606 0.468628C0.739124 0.16857 1.13044 -1.80852e-06 1.53846 -1.77285e-06L18.4615 -2.9339e-07C18.8696 -2.57719e-07 19.2609 0.168571 19.5494 0.46863C19.8379 0.768688 20 1.17565 20 1.6L20 14.4C20 14.8243 19.8379 15.2313 19.5494 15.5314C19.2609 15.8314 18.8696 16 18.4615 16ZM1.53846 14.4L18.4615 14.4L18.4615 8.8L11.5385 8.8C11.1304 8.8 10.7391 8.63143 10.4506 8.33137C10.1621 8.03131 10 7.62435 10 7.2L10 1.6L1.53846 1.6L1.53846 14.4ZM18.4615 1.6L11.5385 1.6L11.5385 7.2L18.4615 7.2L18.4615 1.6Z" fill="currentColor"/>
</svg>
