<svg width="20" height="20" viewBox="0 0 20 20" fill="none" xmlns="http://www.w3.org/2000/svg">
<g id="Frame 52">
<path id="Union" fill-rule="evenodd" clip-rule="evenodd" d="M5.48599 3.24431C6.82214 2.35152 8.39303 1.875 10 1.875C12.1542 1.87727 14.2195 2.73403 15.7427 4.25727C17.266 5.78051 18.1227 7.84581 18.125 10C18.125 11.607 17.6485 13.1779 16.7557 14.514C15.8629 15.8502 14.5939 16.8916 13.1093 17.5065C11.6247 18.1215 9.99099 18.2824 8.41489 17.9689C6.8388 17.6554 5.39106 16.8815 4.25476 15.7452C3.11846 14.6089 2.34463 13.1612 2.03112 11.5851C1.71762 10.009 1.87852 8.37534 2.49348 6.89069C3.10844 5.40605 4.14984 4.13709 5.48599 3.24431ZM6.18046 15.7163C7.31104 16.4718 8.64025 16.875 10 16.875C11.8227 16.8729 13.5702 16.1479 14.8591 14.8591C16.1479 13.5702 16.8729 11.8227 16.875 10C16.875 8.64025 16.4718 7.31104 15.7164 6.18045C14.9609 5.04987 13.8872 4.16868 12.6309 3.64833C11.3747 3.12798 9.99237 2.99183 8.65875 3.2571C7.32514 3.52237 6.10013 4.17715 5.13864 5.13864C4.17716 6.10013 3.52238 7.32513 3.2571 8.65875C2.99183 9.99237 3.12798 11.3747 3.64833 12.6309C4.16868 13.8872 5.04987 14.9609 6.18046 15.7163ZM7.05805 14.1919C6.94083 14.0747 6.87499 13.9157 6.87499 13.7499C6.87499 13.5842 6.94083 13.4252 7.05805 13.308C7.17526 13.1908 7.33423 13.1249 7.49999 13.1249H12.5C12.6657 13.1249 12.8247 13.1908 12.9419 13.308C13.0591 13.4252 13.125 13.5842 13.125 13.7499C13.125 13.9157 13.0591 14.0747 12.9419 14.1919C12.8247 14.3091 12.6657 14.3749 12.5 14.3749L7.49999 14.3749C7.33423 14.3749 7.17526 14.3091 7.05805 14.1919ZM5.80805 11.0669C5.69084 10.9497 5.62499 10.7907 5.62499 10.6249C5.62499 10.4592 5.69084 10.3002 5.80805 10.183C5.9239 10.0671 6.08057 10.0015 6.24426 9.99997H13.7558C13.9194 10.0015 14.0761 10.0672 14.1919 10.183C14.3091 10.3002 14.375 10.4592 14.375 10.6249C14.375 10.7907 14.3091 10.9497 14.1919 11.0669C14.0747 11.1841 13.9157 11.2499 13.75 11.2499L6.24999 11.2499C6.08423 11.2499 5.92526 11.1841 5.80805 11.0669ZM4.37507 7.5C4.37507 7.66576 4.44092 7.82473 4.55813 7.94194C4.67534 8.05915 4.83431 8.125 5.00007 8.125H15.0001C15.1658 8.125 15.3248 8.05915 15.442 7.94194C15.5592 7.82473 15.6251 7.66576 15.6251 7.5C15.6251 7.33424 15.5592 7.17527 15.442 7.05806C15.3248 6.94085 15.1658 6.875 15.0001 6.875L5.00007 6.875C4.83431 6.875 4.67534 6.94085 4.55813 7.05806C4.44092 7.17527 4.37507 7.33424 4.37507 7.5Z" fill="#6A6A6B"/>
</g>
</svg>
