<svg xmlns="http://www.w3.org/2000/svg" width="20" height="21" viewBox="0 0 20 21" fill="none">
  <path d="M1.43286 8.80855L7.68286 2.55855C7.77022 2.47109 7.88156 2.4115 8.00279 2.38732C8.12402 2.36314 8.2497 2.37545 8.36393 2.4227C8.47816 2.46995 8.57582 2.55001 8.64455 2.65276C8.71328 2.75551 8.74999 2.87634 8.75005 2.99995V6.1523C10.7766 6.32574 13.0149 7.31792 14.8563 8.87964C17.0735 10.7609 18.454 13.1851 18.7438 15.7054C18.7664 15.9014 18.7267 16.0995 18.6303 16.2715C18.5338 16.4436 18.3855 16.5808 18.2066 16.6637C18.0276 16.7466 17.827 16.771 17.6334 16.7333C17.4398 16.6956 17.263 16.5978 17.1282 16.4539C16.2688 15.539 13.211 12.646 8.75005 12.3914V15.5C8.74999 15.6236 8.71328 15.7444 8.64455 15.8472C8.57582 15.9499 8.47816 16.03 8.36393 16.0772C8.2497 16.1245 8.12402 16.1368 8.00279 16.1126C7.88156 16.0884 7.77022 16.0288 7.68286 15.9414L1.43286 9.69136C1.31598 9.5742 1.25034 9.41545 1.25034 9.24996C1.25034 9.08446 1.31598 8.92572 1.43286 8.80855ZM7.50005 13.9914V11.75C7.50005 11.5842 7.5659 11.4252 7.68311 11.308C7.80032 11.1908 7.95929 11.125 8.12505 11.125C10.3188 11.125 12.4555 11.6976 14.4758 12.8281C15.5048 13.4064 16.4635 14.1016 17.3329 14.9C16.8797 13.0375 15.7375 11.2664 14.0477 9.83277C12.2336 8.29449 10.0196 7.37496 8.12505 7.37496C7.95929 7.37496 7.80032 7.30911 7.68311 7.1919C7.5659 7.07469 7.50005 6.91572 7.50005 6.74996V4.50933L2.75864 9.24996L7.50005 13.9914Z" fill="currentColor"/>
</svg>