<svg width="24" height="24" viewBox="0 0 24 24" fill="none" xmlns="http://www.w3.org/2000/svg">
<path fill-rule="evenodd" clip-rule="evenodd" d="M17.0864 13.8H12V10.2H20.1V10.2373H20.8249C20.9379 10.8075 21 11.3966 21 12C21 15.9408 18.5742 18.2268 18.1037 18.6138C16.4995 20.095 14.3554 21 12 21C11.9223 21 11.8449 20.999 11.7677 20.9971C6.9048 20.8738 3 16.8926 3 12C3 7.02975 7.02975 3 12 3C14.3706 3 16.5207 3.92385 18.1281 5.4219L15.5824 7.96755C14.6289 7.1193 13.3765 6.6 12 6.6C11.8867 6.6 11.7742 6.60349 11.6626 6.61037C9.5416 6.74125 7.75476 8.0976 6.99465 9.9795L6.99165 9.9773C6.73907 10.602 6.6 11.2848 6.6 12C6.6 12.6417 6.71196 13.2573 6.91742 13.8283L6.92265 13.8243C7.65084 15.85 9.55061 17.3174 11.8075 17.3966C11.8714 17.3989 11.9356 17.4 12 17.4C12.1323 17.4 12.2635 17.3952 12.3933 17.3859C13.4267 17.3107 14.4193 16.9371 15.2485 16.3065L15.2509 16.3085C15.251 16.3084 15.2511 16.3084 15.2512 16.3083L15.2485 16.306L15.2472 16.3069C16.092 15.6689 16.7314 14.7974 17.0864 13.8Z" fill="#3C3C3C"/>
</svg>
