<svg xmlns="http://www.w3.org/2000/svg" width="20" height="21" viewBox="0 0 20 21" fill="none">
  <path d="M10 1.75C8.26942 1.75 6.57769 2.26318 5.13876 3.22464C3.69983 4.1861 2.57832 5.55267 1.91606 7.15152C1.25379 8.75037 1.08051 10.5097 1.41813 12.207C1.75575 13.9044 2.58911 15.4635 3.81282 16.6872C5.03653 17.9109 6.59563 18.7442 8.29296 19.0819C9.9903 19.4195 11.7496 19.2462 13.3485 18.5839C14.9473 17.9217 16.3139 16.8002 17.2754 15.3612C18.2368 13.9223 18.75 12.2306 18.75 10.5C18.7475 8.18011 17.8249 5.95593 16.1845 4.31552C14.5441 2.67511 12.3199 1.75245 10 1.75ZM10 17.9038C8.53566 17.9038 7.1042 17.4696 5.88665 16.6561C4.66909 15.8425 3.72012 14.6862 3.15974 13.3333C2.59936 11.9805 2.45274 10.4918 2.73842 9.05558C3.0241 7.61937 3.72925 6.30014 4.76469 5.26469C5.80014 4.22924 7.11938 3.5241 8.55558 3.23842C9.99179 2.95274 11.4805 3.09936 12.8333 3.65974C14.1862 4.22012 15.3425 5.16909 16.1561 6.38664C16.9696 7.6042 17.4038 9.03566 17.4038 10.5C17.4016 12.4629 16.6209 14.3448 15.2329 15.7328C13.8448 17.1209 11.9629 17.9016 10 17.9038ZM11.0096 10.5C11.0096 10.6997 10.9504 10.8949 10.8395 11.0609C10.7285 11.2269 10.5708 11.3563 10.3864 11.4328C10.2019 11.5092 9.99888 11.5292 9.80303 11.4902C9.60719 11.4513 9.42729 11.3551 9.2861 11.2139C9.1449 11.0727 9.04874 10.8928 9.00979 10.697C8.97083 10.5011 8.99082 10.2981 9.06724 10.1136C9.14365 9.92915 9.27306 9.77147 9.43909 9.66053C9.60512 9.5496 9.80032 9.49038 10 9.49038C10.2678 9.49038 10.5246 9.59675 10.7139 9.78609C10.9032 9.97543 11.0096 10.2322 11.0096 10.5ZM14.7115 10.5C14.7115 10.6997 14.6523 10.8949 14.5414 11.0609C14.4304 11.2269 14.2728 11.3563 14.0883 11.4328C13.9038 11.5092 13.7008 11.5292 13.505 11.4902C13.3091 11.4513 13.1292 11.3551 12.988 11.2139C12.8468 11.0727 12.7507 10.8928 12.7117 10.697C12.6728 10.5011 12.6927 10.2981 12.7692 10.1136C12.8456 9.92915 12.975 9.77147 13.141 9.66053C13.307 9.5496 13.5022 9.49038 13.7019 9.49038C13.9697 9.49038 14.2265 9.59675 14.4158 9.78609C14.6052 9.97543 14.7115 10.2322 14.7115 10.5ZM7.30769 10.5C7.30769 10.6997 7.24848 10.8949 7.13754 11.0609C7.02661 11.2269 6.86893 11.3563 6.68444 11.4328C6.49996 11.5092 6.29696 11.5292 6.10111 11.4902C5.90527 11.4513 5.72537 11.3551 5.58417 11.2139C5.44298 11.0727 5.34682 10.8928 5.30786 10.697C5.26891 10.5011 5.2889 10.2981 5.36532 10.1136C5.44173 9.92915 5.57114 9.77147 5.73717 9.66053C5.9032 9.5496 6.0984 9.49038 6.29808 9.49038C6.56585 9.49038 6.82265 9.59675 7.01199 9.78609C7.20132 9.97543 7.30769 10.2322 7.30769 10.5Z" fill="currentColor"/>
</svg>