<svg width="32" height="32" viewBox="0 0 32 32" fill="none" xmlns="http://www.w3.org/2000/svg">
<path d="M27.7185 8.12143L23.8786 4.28155C23.7894 4.19229 23.6835 4.12149 23.567 4.07318C23.4505 4.02487 23.3256 4 23.1994 4C23.0732 4 22.9483 4.02487 22.8318 4.07318C22.7152 4.12149 22.6094 4.19229 22.5202 4.28155L11.0006 15.8012C10.9115 15.8904 10.8408 15.9963 10.7926 16.1128C10.7444 16.2294 10.7197 16.3543 10.7198 16.4804V20.3202C10.7198 20.5748 10.8209 20.819 11.001 20.999C11.181 21.1791 11.4252 21.2802 11.6798 21.2802H15.5196C15.6457 21.2803 15.7706 21.2556 15.8872 21.2074C16.0037 21.1592 16.1096 21.0885 16.1988 20.9994L27.7185 9.47978C27.8077 9.39063 27.8785 9.28475 27.9268 9.16822C27.9751 9.05168 28 8.92676 28 8.8006C28 8.67445 27.9751 8.54953 27.9268 8.43299C27.8785 8.31645 27.8077 8.21058 27.7185 8.12143ZM15.1225 19.3603H12.6397V16.8776L20.3195 9.19779L22.8022 11.6805L15.1225 19.3603ZM24.1594 10.3234L21.6766 7.84063L23.1994 6.31788L25.6821 8.8006L24.1594 10.3234ZM27.0393 15.5204V26.0801C27.0393 26.5893 26.837 27.0776 26.4769 27.4377C26.1169 27.7977 25.6285 28 25.1193 28H5.91994C5.41074 28 4.9224 27.7977 4.56234 27.4377C4.20228 27.0776 4 26.5893 4 26.0801V6.88066C4 6.37146 4.20228 5.88312 4.56234 5.52306C4.9224 5.163 5.41074 4.96072 5.91994 4.96072H16.4796C16.7342 4.96072 16.9784 5.06186 17.1584 5.24189C17.3384 5.42192 17.4396 5.66609 17.4396 5.92069C17.4396 6.17529 17.3384 6.41947 17.1584 6.5995C16.9784 6.77953 16.7342 6.88066 16.4796 6.88066H5.91994V26.0801H25.1193V15.5204C25.1193 15.2658 25.2205 15.0216 25.4005 14.8416C25.5805 14.6616 25.8247 14.5604 26.0793 14.5604C26.3339 14.5604 26.5781 14.6616 26.7581 14.8416C26.9381 15.0216 27.0393 15.2658 27.0393 15.5204Z" fill="black"/>
</svg>
