<svg xmlns="http://www.w3.org/2000/svg" viewBox="0 0 32 32" fill="none">
<path d="M24 16C24 16.2546 23.8989 16.4988 23.7188 16.6788C23.5388 16.8589 23.2946 16.96 23.04 16.96H16.96V23.04C16.96 23.2946 16.8589 23.5388 16.6788 23.7188C16.4988 23.8989 16.2546 24 16 24C15.7454 24 15.5012 23.8989 15.3212 23.7188C15.1411 23.5388 15.04 23.2946 15.04 23.04V16.96H8.96C8.70539 16.96 8.46121 16.8589 8.28118 16.6788C8.10114 16.4988 8 16.2546 8 16C8 15.7454 8.10114 15.5012 8.28118 15.3212C8.46121 15.1411 8.70539 15.04 8.96 15.04H15.04V8.96C15.04 8.70539 15.1411 8.46121 15.3212 8.28118C15.5012 8.10114 15.7454 8 16 8C16.2546 8 16.4988 8.10114 16.6788 8.28118C16.8589 8.46121 16.96 8.70539 16.96 8.96V15.04H23.04C23.2946 15.04 23.5388 15.1411 23.7188 15.3212C23.8989 15.5012 24 15.7454 24 16Z" fill="currentColor"/>
</svg>