<svg width="24" height="24" viewBox="0 0 24 24" fill="none" xmlns="http://www.w3.org/2000/svg">
<path d="M22.0612 7.62846L16.3716 1.93971C16.2323 1.80038 16.0669 1.68986 15.8849 1.61446C15.7029 1.53905 15.5078 1.50024 15.3108 1.50024C15.1138 1.50024 14.9187 1.53905 14.7367 1.61446C14.5547 1.68986 14.3893 1.80038 14.25 1.93971L9.22218 6.98346C8.22281 6.67033 5.94093 6.29252 3.55968 8.21533C3.39555 8.34731 3.26105 8.51238 3.16494 8.69978C3.06883 8.88719 3.01326 9.09273 3.00185 9.30304C2.99044 9.51334 3.02345 9.72369 3.09872 9.9204C3.174 10.1171 3.28985 10.2957 3.43875 10.4447L7.96875 14.9728L3.96937 18.9694C3.82864 19.1101 3.74958 19.301 3.74958 19.5C3.74958 19.699 3.82864 19.8899 3.96937 20.0306C4.1101 20.1714 4.30097 20.2504 4.5 20.2504C4.69902 20.2504 4.88989 20.1714 5.03062 20.0306L9.02718 16.0313L13.5544 20.5585C13.6935 20.6982 13.8589 20.8092 14.041 20.8849C14.2231 20.9607 14.4184 20.9998 14.6156 21C14.6512 21 14.6859 21 14.7216 21C14.9354 20.9852 15.1435 20.9245 15.3318 20.8221C15.5201 20.7197 15.6842 20.578 15.8128 20.4066C17.6541 17.9597 17.4769 15.9703 17.0494 14.7816L22.0622 9.75002C22.2014 9.61066 22.3119 9.44524 22.3872 9.2632C22.4625 9.08115 22.5013 8.88605 22.5012 8.68904C22.5011 8.49203 22.4622 8.29697 22.3867 8.11499C22.3112 7.93301 22.2006 7.76769 22.0612 7.62846ZM21 8.68971L15.6309 14.0766C15.5201 14.1879 15.4469 14.3312 15.4219 14.4863C15.3968 14.6414 15.4211 14.8004 15.4912 14.941C16.3781 16.7156 15.3225 18.5588 14.6156 19.4991L4.5 9.38252C5.6325 8.46939 6.71625 8.22846 7.545 8.22846C8.07086 8.22128 8.5924 8.32443 9.07593 8.53127C9.217 8.60187 9.37674 8.62619 9.53243 8.60078C9.68812 8.57536 9.83183 8.5015 9.94312 8.38971L15.3112 3.00002L21 8.68877V8.68971Z" fill="#3C3C3C"/>
</svg>
