<svg viewBox="0 0 20 20" fill="none" xmlns="http://www.w3.org/2000/svg">
<g id="ArrowCounterClockwise">
<path id="Vector" d="M18.5 10.0001C18.5002 11.9719 17.7239 13.8644 16.3391 15.2681C14.9543 16.6718 13.0724 17.4736 11.1008 17.5001H11C9.08456 17.5049 7.24085 16.7719 5.85156 15.4532C5.7919 15.3968 5.74394 15.3292 5.71042 15.2542C5.67689 15.1793 5.65846 15.0984 5.65618 15.0163C5.65389 14.9343 5.6678 14.8525 5.6971 14.7758C5.7264 14.6991 5.77053 14.6289 5.82695 14.5693C5.88338 14.5096 5.95101 14.4616 6.02597 14.4281C6.10093 14.3946 6.18176 14.3762 6.26385 14.3739C6.34593 14.3716 6.42767 14.3855 6.50438 14.4148C6.58109 14.4441 6.65128 14.4882 6.71094 14.5446C7.60453 15.3874 8.72663 15.9481 9.93705 16.1568C11.1475 16.3655 12.3926 16.213 13.5168 15.7182C14.641 15.2233 15.5945 14.4083 16.2582 13.3747C16.9218 12.3411 17.2663 11.1349 17.2484 9.90678C17.2305 8.67863 16.8512 7.48296 16.1577 6.46914C15.4642 5.45533 14.4874 4.66833 13.3493 4.20644C12.2112 3.74455 10.9622 3.62826 9.75832 3.8721C8.55447 4.11594 7.44916 4.70909 6.58047 5.57746C6.57409 5.58436 6.5673 5.59088 6.56016 5.59699L4.48359 7.50011H6.625C6.79076 7.50011 6.94973 7.56596 7.06694 7.68317C7.18415 7.80038 7.25 7.95935 7.25 8.12511C7.25 8.29087 7.18415 8.44984 7.06694 8.56705C6.94973 8.68426 6.79076 8.75011 6.625 8.75011H2.875C2.70924 8.75011 2.55027 8.68426 2.43306 8.56705C2.31585 8.44984 2.25 8.29087 2.25 8.12511V4.37511C2.25 4.20935 2.31585 4.05038 2.43306 3.93317C2.55027 3.81596 2.70924 3.75011 2.875 3.75011C3.04076 3.75011 3.19973 3.81596 3.31694 3.93317C3.43415 4.05038 3.5 4.20935 3.5 4.37511V6.70324L5.70703 4.68761C6.75702 3.64171 8.09333 2.93032 9.54729 2.64326C11.0012 2.3562 12.5077 2.50633 13.8764 3.07471C15.2451 3.64309 16.4147 4.60422 17.2376 5.83679C18.0605 7.06935 18.4998 8.51809 18.5 10.0001Z" fill="currentColor"/>
</g>
</svg>
