<svg xmlns="http://www.w3.org/2000/svg" width="20" height="21" viewBox="0 0 20 21" fill="none">
  <path d="M18.5671 8.80855L12.3171 2.55855C12.2298 2.47109 12.1184 2.4115 11.9972 2.38732C11.876 2.36314 11.7503 2.37545 11.6361 2.4227C11.5218 2.46995 11.4242 2.55001 11.3555 2.65276C11.2867 2.75551 11.25 2.87634 11.25 2.99995V6.1523C9.22339 6.32574 6.98511 7.31792 5.1437 8.87964C2.92651 10.7609 1.54605 13.1851 1.2562 15.7054C1.23355 15.9014 1.27328 16.0995 1.36974 16.2715C1.46619 16.4436 1.61446 16.5808 1.79343 16.6637C1.97241 16.7466 2.17298 16.771 2.36659 16.7333C2.56021 16.6956 2.73701 16.5978 2.87183 16.4539C3.7312 15.539 6.78901 12.646 11.25 12.3914V15.5C11.25 15.6236 11.2867 15.7444 11.3555 15.8472C11.4242 15.9499 11.5218 16.03 11.6361 16.0772C11.7503 16.1245 11.876 16.1368 11.9972 16.1126C12.1184 16.0884 12.2298 16.0288 12.3171 15.9414L18.5671 9.69136C18.684 9.5742 18.7497 9.41545 18.7497 9.24996C18.7497 9.08446 18.684 8.92572 18.5671 8.80855ZM12.5 13.9914V11.75C12.5 11.5842 12.4341 11.4252 12.3169 11.308C12.1997 11.1908 12.0407 11.125 11.875 11.125C9.6812 11.125 7.54448 11.6976 5.52417 12.8281C4.49522 13.4064 3.53652 14.1016 2.66714 14.9C3.12026 13.0375 4.26245 11.2664 5.9523 9.83277C7.76636 8.29449 9.98042 7.37496 11.875 7.37496C12.0407 7.37496 12.1997 7.30911 12.3169 7.1919C12.4341 7.07469 12.5 6.91572 12.5 6.74996V4.50933L17.2414 9.24996L12.5 13.9914Z" fill="currentColor"/>
</svg>