<svg width="13" height="13" viewBox="0 0 13 13" fill="none" xmlns="http://www.w3.org/2000/svg">
<path id="Vector" d="M12.8536 12.1469L9.72764 9.02153C10.6337 7.93378 11.0855 6.5386 10.989 5.12622C10.8926 3.71384 10.2554 2.393 9.20992 1.43849C8.16445 0.48397 6.79123 -0.0307435 5.37593 0.00142159C3.96063 0.0335867 2.61221 0.610153 1.61118 1.61118C0.610153 2.61221 0.0335867 3.96063 0.00142159 5.37593C-0.0307435 6.79123 0.48397 8.16445 1.43849 9.20992C2.393 10.2554 3.71384 10.8926 5.12622 10.989C6.5386 11.0855 7.93378 10.6337 9.02153 9.72764L12.1469 12.8536C12.1933 12.9 12.2484 12.9368 12.309 12.962C12.3697 12.9871 12.4346 13 12.5003 13C12.5659 13 12.6309 12.9871 12.6915 12.962C12.7521 12.9368 12.8072 12.9 12.8536 12.8536C12.9 12.8072 12.9368 12.7521 12.962 12.6915C12.9871 12.6309 13 12.5659 13 12.5003C13 12.4346 12.9871 12.3697 12.962 12.309C12.9368 12.2484 12.9 12.1933 12.8536 12.1469ZM1.01272 5.50784C1.01272 4.61879 1.27635 3.7497 1.77028 3.01048C2.26421 2.27126 2.96626 1.69511 3.78763 1.35489C4.60901 1.01466 5.51283 0.925644 6.3848 1.09909C7.25677 1.27253 8.05772 1.70065 8.68638 2.32931C9.31503 2.95796 9.74315 3.75892 9.9166 4.63089C10.09 5.50286 10.001 6.40668 9.6608 7.22805C9.32057 8.04943 8.74442 8.75147 8.0052 9.24541C7.26598 9.73934 6.3969 10.003 5.50784 10.003C4.31607 10.0016 3.17348 9.52763 2.33077 8.68492C1.48806 7.84221 1.01404 6.69962 1.01272 5.50784Z" fill="#737373"/>
</svg>
