<svg xmlns="http://www.w3.org/2000/svg" width="20" height="21" viewBox="0 0 20 21" fill="none">
  <path d="M1.25 10.5C1.25 12.2306 1.76318 13.9223 2.72464 15.3612C3.6861 16.8002 5.05267 17.9217 6.65152 18.5839C8.25037 19.2462 10.0097 19.4195 11.707 19.0819C13.4044 18.7442 14.9635 17.9109 16.1872 16.6872C17.4109 15.4635 18.2442 13.9044 18.5819 12.207C18.9195 10.5097 18.7462 8.75037 18.0839 7.15152C17.4217 5.55267 16.3002 4.1861 14.8612 3.22464C13.4223 2.26318 11.7306 1.75 10 1.75C7.68011 1.75245 5.45593 2.67511 3.81552 4.31552C2.17511 5.95593 1.25245 8.18011 1.25 10.5ZM17.4038 10.5C17.4038 11.9643 16.9696 13.3958 16.1561 14.6134C15.3425 15.8309 14.1862 16.7799 12.8333 17.3403C11.4805 17.9006 9.99179 18.0473 8.55558 17.7616C7.11938 17.4759 5.80014 16.7708 4.76469 15.7353C3.72924 14.6999 3.0241 13.3806 2.73842 11.9444C2.45274 10.5082 2.59936 9.01954 3.15974 7.66667C3.72012 6.31379 4.66909 5.15747 5.88664 4.34393C7.1042 3.53038 8.53566 3.09615 10 3.09615C11.9629 3.09838 13.8448 3.87914 15.2328 5.26715C16.6209 6.65516 17.4016 8.53706 17.4038 10.5ZM10 5.11538C10.1785 5.11538 10.3497 5.1863 10.4759 5.31252C10.6022 5.43875 10.6731 5.60995 10.6731 5.78846L10.6731 10.5C10.6731 10.6785 10.6022 10.8497 10.4759 10.9759C10.3497 11.1022 10.1785 11.1731 10 11.1731L5.28846 11.1731C5.10995 11.1731 4.93875 11.1022 4.81252 10.9759C4.6863 10.8497 4.61538 10.6785 4.61538 10.5C4.61538 10.3215 4.6863 10.1503 4.81252 10.0241C4.93875 9.89783 5.10995 9.82692 5.28846 9.82692L9.32692 9.82692L9.32692 5.78846C9.32692 5.60995 9.39784 5.43875 9.52406 5.31252C9.65029 5.1863 9.82149 5.11538 10 5.11538Z" fill="currentColor"/>
</svg>